# xmcd
#
# Track frame offsets:
#	183
#	14795
#	35930
#	45248
#	63110
#	75990
#	90165
#	101393
#	113720
#	132423
#	148963
#	159775
#	167980
#	178605
#	195513
#	203640
#
# Disc length: 2887 seconds
#
# Revision: 2
# Processed by: cddbd v1.5.2PL0 Copyright (c) Steve Scherf et al.
# Submitted via: VUPlayer 2.49
#
DISCID=ca0b4510
DTITLE=The Dubliners - The Dubliners Greatest Hits
DYEAR=1990
DGENRE=Folk
TTITLE0=The Wild Rover =RoeiSong=
TTITLE1=The Leaving of Liverpool
TTITLE2=I'll Tell My Ma
TTITLE3=Will You Come To the Bower
TTITLE4=Easy and Slow
TTITLE5=Home Boys Home
TTITLE6=The Rocky Road To Dublin
TTITLE7=The Old Orange Flute
TTITLE8=Nelson's Farewell
TTITLE9=The Mason's Apron
TTITLE10=Off To Dublin in the Green
TTITLE11=Peggy Lettermore
TTITLE12=The Glendalough Saint
TTITLE13=Roisin Dubh
TTITLE14=The Twang Man
TTITLE15=Boulavogue
EXTD=
EXTT0=
EXTT1=
EXTT2=
EXTT3=
EXTT4=
EXTT5=
EXTT6=
EXTT7=
EXTT8=
EXTT9=
EXTT10=
EXTT11=
EXTT12=
EXTT13=
EXTT14=
EXTT15=
PLAYORDER=
